<?xml version="1.0" encoding="UTF-8" standalone="no"?>
<svg
  xmlns="http://www.w3.org/2000/svg"
  width="800"
  height="202"
  viewBox="0 0 800 202"
  version="1.0">
  <rect id="panel-top" x="0" y="0" width="800" height="2"/>

  <rect id="TLDE" x="6" y="6" width="49" height="36"/>
  <rect id="AE01" x="58" y="6" width="49" height="36"/>
  <rect id="AE02" x="110" y="6" width="49" height="36"/>
  <rect id="AE03" x="162" y="6" width="49" height="36"/>
  <rect id="AE04" x="214" y="6" width="49" height="36"/>
  <rect id="AE05" x="266" y="6" width="49" height="36"/>
  <rect id="AE06" x="318" y="6" width="49" height="36"/>
  <rect id="AE07" x="370" y="6" width="49" height="36"/>
  <rect id="AE08" x="422" y="6" width="49" height="36"/>
  <rect id="AE09" x="474" y="6" width="49" height="36"/>
  <rect id="AE10" x="526" y="6" width="49" height="36"/>
  <rect id="AE11" x="578" y="6" width="49" height="36"/>
  <rect id="AE12" x="630" y="6" width="49" height="36"/>
  <rect id="BKSP" x="682" y="6" width="112" height="36"/>

  <rect id="AD01" x="6" y="45" width="57.846" height="36"/>
  <rect id="AD02" x="66.846" y="45" width="57.846" height="36"/>
  <rect id="AD03" x="127.692" y="45" width="57.846" height="36"/>
  <rect id="AD04" x="188.538" y="45" width="57.846" height="36"/>
  <rect id="AD05" x="249.384" y="45" width="57.846" height="36"/>
  <rect id="AD06" x="310.230" y="45" width="57.846" height="36"/>
  <rect id="AD07" x="371.076" y="45" width="57.846" height="36"/>
  <rect id="AD08" x="431.922" y="45" width="57.846" height="36"/>
  <rect id="AD09" x="492.768" y="45" width="57.846" height="36"/>
  <rect id="AD10" x="553.614" y="45" width="57.846" height="36"/>
  <rect id="AD11" x="614.460" y="45" width="57.846" height="36"/>
  <rect id="AD12" x="675.306" y="45" width="57.846" height="36"/>
  <rect id="BKSL" x="736.152" y="45" width="57.846" height="36"/>

  <rect id="CAPS" x="6" y="84" width="80" height="75"/>
  <rect id="AC01" x="89" y="84" width="52.727" height="36"/>
  <rect id="AC02" x="144.727" y="84" width="52.727" height="36"/>
  <rect id="AC03" x="200.454" y="84" width="52.727" height="36"/>
  <rect id="AC04" x="256.181" y="84" width="52.727" height="36"/>
  <rect id="AC05" x="311.908" y="84" width="52.727" height="36"/>
  <rect id="AC06" x="367.635" y="84" width="52.727" height="36"/>
  <rect id="AC07" x="423.362" y="84" width="52.727" height="36"/>
  <rect id="AC08" x="479.089" y="84" width="52.727" height="36"/>
  <rect id="AC09" x="534.816" y="84" width="52.727" height="36"/>
  <rect id="AC10" x="590.543" y="84" width="52.727" height="36"/>
  <rect id="AC11" x="646.270" y="84" width="52.727" height="36"/>
  <rect id="RTRN" x="704" y="84" width="90" height="75"/>

  <rect id="AB01" x="96" y="123" width="57" height="36"/>
  <rect id="AB02" x="156" y="123" width="57" height="36"/>
  <rect id="AB03" x="216" y="123" width="57" height="36"/>
  <rect id="AB04" x="276" y="123" width="57" height="36"/>
  <rect id="AB05" x="336" y="123" width="57" height="36"/>
  <rect id="AB06" x="396" y="123" width="57" height="36"/>
  <rect id="AB07" x="456" y="123" width="57" height="36"/>
  <rect id="AB08" x="516" y="123" width="57" height="36"/>
  <rect id="AB09" x="576" y="123" width="57" height="36"/>
  <rect id="AB10" x="636" y="123" width="57" height="36"/>

  <rect id="LFSH" x="6" y="162" width="112" height="34"/>
  <rect id="SPCE" x="121" y="162" width="558" height="34"/>
  <rect id="RTSH" x="682" y="162" width="112" height="34"/>
</svg>
